<?xml version="1.0" standalone="no"?>
<svg xmlns:xlink="http://www.w3.org/1999/xlink" id="wave" style="transform:rotate(0deg); transition: 0.3s" viewBox="0 0 1440 360" version="1.1" xmlns="http://www.w3.org/2000/svg"><defs><linearGradient id="sw-gradient-0" x1="0" x2="0" y1="1" y2="0"><stop stop-color="rgba(4.139, 0, 255, 1)" offset="0%"/><stop stop-color="rgba(11, 205.408, 255, 1)" offset="100%"/></linearGradient></defs><path style="transform:translate(0, 0px); opacity:1" fill="url(#sw-gradient-0)" d="M0,252L60,216C120,180,240,108,360,102C480,96,600,156,720,192C840,228,960,240,1080,216C1200,192,1320,132,1440,114C1560,96,1680,120,1800,132C1920,144,2040,144,2160,174C2280,204,2400,264,2520,264C2640,264,2760,204,2880,156C3000,108,3120,72,3240,66C3360,60,3480,84,3600,120C3720,156,3840,204,3960,222C4080,240,4200,228,4320,228C4440,228,4560,240,4680,258C4800,276,4920,300,5040,264C5160,228,5280,132,5400,96C5520,60,5640,84,5760,90C5880,96,6000,84,6120,84C6240,84,6360,96,6480,132C6600,168,6720,228,6840,264C6960,300,7080,312,7200,282C7320,252,7440,180,7560,150C7680,120,7800,132,7920,144C8040,156,8160,168,8280,162C8400,156,8520,132,8580,120L8640,108L8640,360L8580,360C8520,360,8400,360,8280,360C8160,360,8040,360,7920,360C7800,360,7680,360,7560,360C7440,360,7320,360,7200,360C7080,360,6960,360,6840,360C6720,360,6600,360,6480,360C6360,360,6240,360,6120,360C6000,360,5880,360,5760,360C5640,360,5520,360,5400,360C5280,360,5160,360,5040,360C4920,360,4800,360,4680,360C4560,360,4440,360,4320,360C4200,360,4080,360,3960,360C3840,360,3720,360,3600,360C3480,360,3360,360,3240,360C3120,360,3000,360,2880,360C2760,360,2640,360,2520,360C2400,360,2280,360,2160,360C2040,360,1920,360,1800,360C1680,360,1560,360,1440,360C1320,360,1200,360,1080,360C960,360,840,360,720,360C600,360,480,360,360,360C240,360,120,360,60,360L0,360Z"/><defs><linearGradient id="sw-gradient-1" x1="0" x2="0" y1="1" y2="0"><stop stop-color="rgba(0, 4.499, 255, 1)" offset="0%"/><stop stop-color="rgba(11, 221.939, 255, 1)" offset="100%"/></linearGradient></defs><path style="transform:translate(0, 50px); opacity:0.9" fill="url(#sw-gradient-1)" d="M0,216L60,180C120,144,240,72,360,78C480,84,600,168,720,192C840,216,960,180,1080,150C1200,120,1320,96,1440,78C1560,60,1680,48,1800,84C1920,120,2040,204,2160,198C2280,192,2400,96,2520,90C2640,84,2760,168,2880,174C3000,180,3120,108,3240,78C3360,48,3480,60,3600,72C3720,84,3840,96,3960,102C4080,108,4200,108,4320,138C4440,168,4560,228,4680,234C4800,240,4920,192,5040,174C5160,156,5280,168,5400,150C5520,132,5640,84,5760,84C5880,84,6000,132,6120,180C6240,228,6360,276,6480,300C6600,324,6720,324,6840,294C6960,264,7080,204,7200,186C7320,168,7440,192,7560,222C7680,252,7800,288,7920,252C8040,216,8160,108,8280,90C8400,72,8520,144,8580,180L8640,216L8640,360L8580,360C8520,360,8400,360,8280,360C8160,360,8040,360,7920,360C7800,360,7680,360,7560,360C7440,360,7320,360,7200,360C7080,360,6960,360,6840,360C6720,360,6600,360,6480,360C6360,360,6240,360,6120,360C6000,360,5880,360,5760,360C5640,360,5520,360,5400,360C5280,360,5160,360,5040,360C4920,360,4800,360,4680,360C4560,360,4440,360,4320,360C4200,360,4080,360,3960,360C3840,360,3720,360,3600,360C3480,360,3360,360,3240,360C3120,360,3000,360,2880,360C2760,360,2640,360,2520,360C2400,360,2280,360,2160,360C2040,360,1920,360,1800,360C1680,360,1560,360,1440,360C1320,360,1200,360,1080,360C960,360,840,360,720,360C600,360,480,360,360,360C240,360,120,360,60,360L0,360Z"/><defs><linearGradient id="sw-gradient-2" x1="0" x2="0" y1="1" y2="0"><stop stop-color="rgba(0, 45.194, 241.659, 1)" offset="0%"/><stop stop-color="rgba(11, 238.469, 255, 1)" offset="100%"/></linearGradient></defs><path style="transform:translate(0, 100px); opacity:0.8" fill="url(#sw-gradient-2)" d="M0,36L60,66C120,96,240,156,360,150C480,144,600,72,720,48C840,24,960,48,1080,90C1200,132,1320,192,1440,228C1560,264,1680,276,1800,258C1920,240,2040,192,2160,198C2280,204,2400,264,2520,240C2640,216,2760,108,2880,72C3000,36,3120,72,3240,102C3360,132,3480,156,3600,180C3720,204,3840,228,3960,240C4080,252,4200,252,4320,246C4440,240,4560,228,4680,216C4800,204,4920,192,5040,198C5160,204,5280,228,5400,204C5520,180,5640,108,5760,66C5880,24,6000,12,6120,30C6240,48,6360,96,6480,96C6600,96,6720,48,6840,60C6960,72,7080,144,7200,174C7320,204,7440,192,7560,186C7680,180,7800,180,7920,156C8040,132,8160,84,8280,84C8400,84,8520,132,8580,156L8640,180L8640,360L8580,360C8520,360,8400,360,8280,360C8160,360,8040,360,7920,360C7800,360,7680,360,7560,360C7440,360,7320,360,7200,360C7080,360,6960,360,6840,360C6720,360,6600,360,6480,360C6360,360,6240,360,6120,360C6000,360,5880,360,5760,360C5640,360,5520,360,5400,360C5280,360,5160,360,5040,360C4920,360,4800,360,4680,360C4560,360,4440,360,4320,360C4200,360,4080,360,3960,360C3840,360,3720,360,3600,360C3480,360,3360,360,3240,360C3120,360,3000,360,2880,360C2760,360,2640,360,2520,360C2400,360,2280,360,2160,360C2040,360,1920,360,1800,360C1680,360,1560,360,1440,360C1320,360,1200,360,1080,360C960,360,840,360,720,360C600,360,480,360,360,360C240,360,120,360,60,360L0,360Z"/><defs><linearGradient id="sw-gradient-3" x1="0" x2="0" y1="1" y2="0"><stop stop-color="rgba(0, 4.499, 255, 1)" offset="0%"/><stop stop-color="rgba(11, 238.469, 255, 1)" offset="100%"/></linearGradient></defs><path style="transform:translate(0, 150px); opacity:0.7" fill="url(#sw-gradient-3)" d="M0,144L60,174C120,204,240,264,360,252C480,240,600,156,720,138C840,120,960,168,1080,156C1200,144,1320,72,1440,54C1560,36,1680,72,1800,102C1920,132,2040,156,2160,162C2280,168,2400,156,2520,126C2640,96,2760,48,2880,72C3000,96,3120,192,3240,192C3360,192,3480,96,3600,84C3720,72,3840,144,3960,180C4080,216,4200,216,4320,210C4440,204,4560,192,4680,210C4800,228,4920,276,5040,282C5160,288,5280,252,5400,216C5520,180,5640,144,5760,144C5880,144,6000,180,6120,216C6240,252,6360,288,6480,282C6600,276,6720,228,6840,204C6960,180,7080,180,7200,156C7320,132,7440,84,7560,78C7680,72,7800,108,7920,156C8040,204,8160,264,8280,246C8400,228,8520,132,8580,84L8640,36L8640,360L8580,360C8520,360,8400,360,8280,360C8160,360,8040,360,7920,360C7800,360,7680,360,7560,360C7440,360,7320,360,7200,360C7080,360,6960,360,6840,360C6720,360,6600,360,6480,360C6360,360,6240,360,6120,360C6000,360,5880,360,5760,360C5640,360,5520,360,5400,360C5280,360,5160,360,5040,360C4920,360,4800,360,4680,360C4560,360,4440,360,4320,360C4200,360,4080,360,3960,360C3840,360,3720,360,3600,360C3480,360,3360,360,3240,360C3120,360,3000,360,2880,360C2760,360,2640,360,2520,360C2400,360,2280,360,2160,360C2040,360,1920,360,1800,360C1680,360,1560,360,1440,360C1320,360,1200,360,1080,360C960,360,840,360,720,360C600,360,480,360,360,360C240,360,120,360,60,360L0,360Z"/></svg>