<?xml version="1.0" standalone="no"?>
<svg xmlns:xlink="http://www.w3.org/1999/xlink" id="wave" style="transform:rotate(0deg); transition: 0.3s" viewBox="0 0 1440 330" version="1.1" xmlns="http://www.w3.org/2000/svg"><defs><linearGradient id="sw-gradient-0" x1="0" x2="0" y1="1" y2="0"><stop stop-color="rgba(0, 21.775, 255, 1)" offset="0%"/><stop stop-color="rgba(11, 205.408, 255, 1)" offset="100%"/></linearGradient></defs><path style="transform:translate(0, 0px); opacity:1" fill="url(#sw-gradient-0)" d="M0,165L48,187C96,209,192,253,288,264C384,275,480,253,576,220C672,187,768,143,864,126.5C960,110,1056,121,1152,137.5C1248,154,1344,176,1440,154C1536,132,1632,66,1728,82.5C1824,99,1920,198,2016,198C2112,198,2208,99,2304,82.5C2400,66,2496,132,2592,159.5C2688,187,2784,176,2880,165C2976,154,3072,143,3168,132C3264,121,3360,110,3456,126.5C3552,143,3648,187,3744,209C3840,231,3936,231,4032,225.5C4128,220,4224,209,4320,198C4416,187,4512,176,4608,154C4704,132,4800,99,4896,121C4992,143,5088,220,5184,236.5C5280,253,5376,209,5472,203.5C5568,198,5664,231,5760,253C5856,275,5952,286,6048,264C6144,242,6240,187,6336,165C6432,143,6528,154,6624,181.5C6720,209,6816,253,6864,275L6912,297L6912,330L6864,330C6816,330,6720,330,6624,330C6528,330,6432,330,6336,330C6240,330,6144,330,6048,330C5952,330,5856,330,5760,330C5664,330,5568,330,5472,330C5376,330,5280,330,5184,330C5088,330,4992,330,4896,330C4800,330,4704,330,4608,330C4512,330,4416,330,4320,330C4224,330,4128,330,4032,330C3936,330,3840,330,3744,330C3648,330,3552,330,3456,330C3360,330,3264,330,3168,330C3072,330,2976,330,2880,330C2784,330,2688,330,2592,330C2496,330,2400,330,2304,330C2208,330,2112,330,2016,330C1920,330,1824,330,1728,330C1632,330,1536,330,1440,330C1344,330,1248,330,1152,330C1056,330,960,330,864,330C768,330,672,330,576,330C480,330,384,330,288,330C192,330,96,330,48,330L0,330Z"/><defs><linearGradient id="sw-gradient-1" x1="0" x2="0" y1="1" y2="0"><stop stop-color="rgba(0, 13.137, 255, 1)" offset="0%"/><stop stop-color="rgba(11, 221.939, 255, 1)" offset="100%"/></linearGradient></defs><path style="transform:translate(0, 50px); opacity:0.9" fill="url(#sw-gradient-1)" d="M0,132L48,143C96,154,192,176,288,159.5C384,143,480,88,576,104.5C672,121,768,209,864,214.5C960,220,1056,143,1152,121C1248,99,1344,132,1440,165C1536,198,1632,231,1728,231C1824,231,1920,198,2016,176C2112,154,2208,143,2304,137.5C2400,132,2496,132,2592,143C2688,154,2784,176,2880,181.5C2976,187,3072,176,3168,187C3264,198,3360,231,3456,209C3552,187,3648,110,3744,93.5C3840,77,3936,121,4032,115.5C4128,110,4224,55,4320,49.5C4416,44,4512,88,4608,110C4704,132,4800,132,4896,137.5C4992,143,5088,154,5184,165C5280,176,5376,187,5472,198C5568,209,5664,220,5760,209C5856,198,5952,165,6048,132C6144,99,6240,66,6336,93.5C6432,121,6528,209,6624,253C6720,297,6816,297,6864,297L6912,297L6912,330L6864,330C6816,330,6720,330,6624,330C6528,330,6432,330,6336,330C6240,330,6144,330,6048,330C5952,330,5856,330,5760,330C5664,330,5568,330,5472,330C5376,330,5280,330,5184,330C5088,330,4992,330,4896,330C4800,330,4704,330,4608,330C4512,330,4416,330,4320,330C4224,330,4128,330,4032,330C3936,330,3840,330,3744,330C3648,330,3552,330,3456,330C3360,330,3264,330,3168,330C3072,330,2976,330,2880,330C2784,330,2688,330,2592,330C2496,330,2400,330,2304,330C2208,330,2112,330,2016,330C1920,330,1824,330,1728,330C1632,330,1536,330,1440,330C1344,330,1248,330,1152,330C1056,330,960,330,864,330C768,330,672,330,576,330C480,330,384,330,288,330C192,330,96,330,48,330L0,330Z"/><defs><linearGradient id="sw-gradient-2" x1="0" x2="0" y1="1" y2="0"><stop stop-color="rgba(0, 69.752, 241.659, 1)" offset="0%"/><stop stop-color="rgba(11, 230.204, 255, 1)" offset="100%"/></linearGradient></defs><path style="transform:translate(0, 100px); opacity:0.8" fill="url(#sw-gradient-2)" d="M0,66L48,99C96,132,192,198,288,203.5C384,209,480,154,576,126.5C672,99,768,99,864,104.5C960,110,1056,121,1152,148.5C1248,176,1344,220,1440,242C1536,264,1632,264,1728,236.5C1824,209,1920,154,2016,137.5C2112,121,2208,143,2304,143C2400,143,2496,121,2592,99C2688,77,2784,55,2880,71.5C2976,88,3072,143,3168,154C3264,165,3360,132,3456,132C3552,132,3648,165,3744,170.5C3840,176,3936,154,4032,137.5C4128,121,4224,110,4320,121C4416,132,4512,165,4608,198C4704,231,4800,264,4896,253C4992,242,5088,187,5184,137.5C5280,88,5376,44,5472,55C5568,66,5664,132,5760,165C5856,198,5952,198,6048,187C6144,176,6240,154,6336,121C6432,88,6528,44,6624,27.5C6720,11,6816,22,6864,27.5L6912,33L6912,330L6864,330C6816,330,6720,330,6624,330C6528,330,6432,330,6336,330C6240,330,6144,330,6048,330C5952,330,5856,330,5760,330C5664,330,5568,330,5472,330C5376,330,5280,330,5184,330C5088,330,4992,330,4896,330C4800,330,4704,330,4608,330C4512,330,4416,330,4320,330C4224,330,4128,330,4032,330C3936,330,3840,330,3744,330C3648,330,3552,330,3456,330C3360,330,3264,330,3168,330C3072,330,2976,330,2880,330C2784,330,2688,330,2592,330C2496,330,2400,330,2304,330C2208,330,2112,330,2016,330C1920,330,1824,330,1728,330C1632,330,1536,330,1440,330C1344,330,1248,330,1152,330C1056,330,960,330,864,330C768,330,672,330,576,330C480,330,384,330,288,330C192,330,96,330,48,330L0,330Z"/><defs><linearGradient id="sw-gradient-3" x1="0" x2="0" y1="1" y2="0"><stop stop-color="rgba(0, 4.499, 255, 1)" offset="0%"/><stop stop-color="rgba(11, 221.939, 255, 1)" offset="100%"/></linearGradient></defs><path style="transform:translate(0, 150px); opacity:0.7" fill="url(#sw-gradient-3)" d="M0,33L48,77C96,121,192,209,288,214.5C384,220,480,143,576,143C672,143,768,220,864,209C960,198,1056,99,1152,88C1248,77,1344,154,1440,165C1536,176,1632,121,1728,104.5C1824,88,1920,110,2016,137.5C2112,165,2208,198,2304,176C2400,154,2496,77,2592,66C2688,55,2784,110,2880,159.5C2976,209,3072,253,3168,247.5C3264,242,3360,187,3456,159.5C3552,132,3648,132,3744,121C3840,110,3936,88,4032,66C4128,44,4224,22,4320,44C4416,66,4512,132,4608,159.5C4704,187,4800,176,4896,187C4992,198,5088,231,5184,220C5280,209,5376,154,5472,148.5C5568,143,5664,187,5760,176C5856,165,5952,99,6048,66C6144,33,6240,33,6336,71.5C6432,110,6528,187,6624,231C6720,275,6816,286,6864,291.5L6912,297L6912,330L6864,330C6816,330,6720,330,6624,330C6528,330,6432,330,6336,330C6240,330,6144,330,6048,330C5952,330,5856,330,5760,330C5664,330,5568,330,5472,330C5376,330,5280,330,5184,330C5088,330,4992,330,4896,330C4800,330,4704,330,4608,330C4512,330,4416,330,4320,330C4224,330,4128,330,4032,330C3936,330,3840,330,3744,330C3648,330,3552,330,3456,330C3360,330,3264,330,3168,330C3072,330,2976,330,2880,330C2784,330,2688,330,2592,330C2496,330,2400,330,2304,330C2208,330,2112,330,2016,330C1920,330,1824,330,1728,330C1632,330,1536,330,1440,330C1344,330,1248,330,1152,330C1056,330,960,330,864,330C768,330,672,330,576,330C480,330,384,330,288,330C192,330,96,330,48,330L0,330Z"/></svg>