<?xml version="1.0" standalone="no"?>
<svg xmlns:xlink="http://www.w3.org/1999/xlink" id="wave" style="transform:rotate(0deg); transition: 0.3s" viewBox="0 0 1440 490" version="1.1" xmlns="http://www.w3.org/2000/svg"><defs><linearGradient id="sw-gradient-0" x1="0" x2="0" y1="1" y2="0"><stop stop-color="rgba(0, 21.775, 255, 1)" offset="0%"/><stop stop-color="rgba(11, 205.408, 255, 1)" offset="100%"/></linearGradient></defs><path style="transform:translate(0, 0px); opacity:1" fill="url(#sw-gradient-0)" d="M0,196L48,236.8C96,278,192,359,288,400.2C384,441,480,441,576,367.5C672,294,768,147,864,147C960,147,1056,294,1152,310.3C1248,327,1344,212,1440,179.7C1536,147,1632,196,1728,228.7C1824,261,1920,278,2016,236.8C2112,196,2208,98,2304,49C2400,0,2496,0,2592,73.5C2688,147,2784,294,2880,318.5C2976,343,3072,245,3168,220.5C3264,196,3360,245,3456,253.2C3552,261,3648,229,3744,245C3840,261,3936,327,4032,359.3C4128,392,4224,392,4320,383.8C4416,376,4512,359,4608,318.5C4704,278,4800,212,4896,179.7C4992,147,5088,147,5184,171.5C5280,196,5376,245,5472,277.7C5568,310,5664,327,5760,318.5C5856,310,5952,278,6048,228.7C6144,180,6240,114,6336,98C6432,82,6528,114,6624,155.2C6720,196,6816,245,6864,269.5L6912,294L6912,490L6864,490C6816,490,6720,490,6624,490C6528,490,6432,490,6336,490C6240,490,6144,490,6048,490C5952,490,5856,490,5760,490C5664,490,5568,490,5472,490C5376,490,5280,490,5184,490C5088,490,4992,490,4896,490C4800,490,4704,490,4608,490C4512,490,4416,490,4320,490C4224,490,4128,490,4032,490C3936,490,3840,490,3744,490C3648,490,3552,490,3456,490C3360,490,3264,490,3168,490C3072,490,2976,490,2880,490C2784,490,2688,490,2592,490C2496,490,2400,490,2304,490C2208,490,2112,490,2016,490C1920,490,1824,490,1728,490C1632,490,1536,490,1440,490C1344,490,1248,490,1152,490C1056,490,960,490,864,490C768,490,672,490,576,490C480,490,384,490,288,490C192,490,96,490,48,490L0,490Z"/><defs><linearGradient id="sw-gradient-1" x1="0" x2="0" y1="1" y2="0"><stop stop-color="rgba(0, 13.137, 255, 1)" offset="0%"/><stop stop-color="rgba(11, 221.939, 255, 1)" offset="100%"/></linearGradient></defs><path style="transform:translate(0, 50px); opacity:0.9" fill="url(#sw-gradient-1)" d="M0,0L48,8.2C96,16,192,33,288,98C384,163,480,278,576,318.5C672,359,768,327,864,269.5C960,212,1056,131,1152,114.3C1248,98,1344,147,1440,204.2C1536,261,1632,327,1728,310.3C1824,294,1920,196,2016,163.3C2112,131,2208,163,2304,171.5C2400,180,2496,163,2592,179.7C2688,196,2784,245,2880,277.7C2976,310,3072,327,3168,294C3264,261,3360,180,3456,122.5C3552,65,3648,33,3744,81.7C3840,131,3936,261,4032,261.3C4128,261,4224,131,4320,89.8C4416,49,4512,98,4608,114.3C4704,131,4800,114,4896,138.8C4992,163,5088,229,5184,228.7C5280,229,5376,163,5472,187.8C5568,212,5664,327,5760,351.2C5856,376,5952,310,6048,269.5C6144,229,6240,212,6336,171.5C6432,131,6528,65,6624,57.2C6720,49,6816,98,6864,122.5L6912,147L6912,490L6864,490C6816,490,6720,490,6624,490C6528,490,6432,490,6336,490C6240,490,6144,490,6048,490C5952,490,5856,490,5760,490C5664,490,5568,490,5472,490C5376,490,5280,490,5184,490C5088,490,4992,490,4896,490C4800,490,4704,490,4608,490C4512,490,4416,490,4320,490C4224,490,4128,490,4032,490C3936,490,3840,490,3744,490C3648,490,3552,490,3456,490C3360,490,3264,490,3168,490C3072,490,2976,490,2880,490C2784,490,2688,490,2592,490C2496,490,2400,490,2304,490C2208,490,2112,490,2016,490C1920,490,1824,490,1728,490C1632,490,1536,490,1440,490C1344,490,1248,490,1152,490C1056,490,960,490,864,490C768,490,672,490,576,490C480,490,384,490,288,490C192,490,96,490,48,490L0,490Z"/><defs><linearGradient id="sw-gradient-2" x1="0" x2="0" y1="1" y2="0"><stop stop-color="rgba(0, 69.752, 241.659, 1)" offset="0%"/><stop stop-color="rgba(11, 230.204, 255, 1)" offset="100%"/></linearGradient></defs><path style="transform:translate(0, 100px); opacity:0.8" fill="url(#sw-gradient-2)" d="M0,392L48,359.3C96,327,192,261,288,212.3C384,163,480,131,576,147C672,163,768,229,864,228.7C960,229,1056,163,1152,130.7C1248,98,1344,98,1440,138.8C1536,180,1632,261,1728,277.7C1824,294,1920,245,2016,253.2C2112,261,2208,327,2304,359.3C2400,392,2496,392,2592,367.5C2688,343,2784,294,2880,253.2C2976,212,3072,180,3168,204.2C3264,229,3360,310,3456,343C3552,376,3648,359,3744,318.5C3840,278,3936,212,4032,187.8C4128,163,4224,180,4320,179.7C4416,180,4512,163,4608,196C4704,229,4800,310,4896,343C4992,376,5088,359,5184,326.7C5280,294,5376,245,5472,236.8C5568,229,5664,261,5760,269.5C5856,278,5952,261,6048,245C6144,229,6240,212,6336,236.8C6432,261,6528,327,6624,310.3C6720,294,6816,196,6864,147L6912,98L6912,490L6864,490C6816,490,6720,490,6624,490C6528,490,6432,490,6336,490C6240,490,6144,490,6048,490C5952,490,5856,490,5760,490C5664,490,5568,490,5472,490C5376,490,5280,490,5184,490C5088,490,4992,490,4896,490C4800,490,4704,490,4608,490C4512,490,4416,490,4320,490C4224,490,4128,490,4032,490C3936,490,3840,490,3744,490C3648,490,3552,490,3456,490C3360,490,3264,490,3168,490C3072,490,2976,490,2880,490C2784,490,2688,490,2592,490C2496,490,2400,490,2304,490C2208,490,2112,490,2016,490C1920,490,1824,490,1728,490C1632,490,1536,490,1440,490C1344,490,1248,490,1152,490C1056,490,960,490,864,490C768,490,672,490,576,490C480,490,384,490,288,490C192,490,96,490,48,490L0,490Z"/><defs><linearGradient id="sw-gradient-3" x1="0" x2="0" y1="1" y2="0"><stop stop-color="rgba(0, 4.499, 255, 1)" offset="0%"/><stop stop-color="rgba(11, 147.55, 255, 1)" offset="100%"/></linearGradient></defs><path style="transform:translate(0, 150px); opacity:0.7" fill="url(#sw-gradient-3)" d="M0,245L48,220.5C96,196,192,147,288,122.5C384,98,480,98,576,138.8C672,180,768,261,864,285.8C960,310,1056,278,1152,253.2C1248,229,1344,212,1440,236.8C1536,261,1632,327,1728,351.2C1824,376,1920,359,2016,326.7C2112,294,2208,245,2304,253.2C2400,261,2496,327,2592,343C2688,359,2784,327,2880,310.3C2976,294,3072,294,3168,318.5C3264,343,3360,392,3456,392C3552,392,3648,343,3744,294C3840,245,3936,196,4032,163.3C4128,131,4224,114,4320,114.3C4416,114,4512,131,4608,179.7C4704,229,4800,310,4896,326.7C4992,343,5088,294,5184,269.5C5280,245,5376,245,5472,269.5C5568,294,5664,343,5760,351.2C5856,359,5952,327,6048,277.7C6144,229,6240,163,6336,163.3C6432,163,6528,229,6624,253.2C6720,278,6816,261,6864,253.2L6912,245L6912,490L6864,490C6816,490,6720,490,6624,490C6528,490,6432,490,6336,490C6240,490,6144,490,6048,490C5952,490,5856,490,5760,490C5664,490,5568,490,5472,490C5376,490,5280,490,5184,490C5088,490,4992,490,4896,490C4800,490,4704,490,4608,490C4512,490,4416,490,4320,490C4224,490,4128,490,4032,490C3936,490,3840,490,3744,490C3648,490,3552,490,3456,490C3360,490,3264,490,3168,490C3072,490,2976,490,2880,490C2784,490,2688,490,2592,490C2496,490,2400,490,2304,490C2208,490,2112,490,2016,490C1920,490,1824,490,1728,490C1632,490,1536,490,1440,490C1344,490,1248,490,1152,490C1056,490,960,490,864,490C768,490,672,490,576,490C480,490,384,490,288,490C192,490,96,490,48,490L0,490Z"/></svg>